# xmcd CD database file
#
# Track frame offsets:
#	150
#	14818
#	27576
#	37243
#	55961
#	70899
#	90874
#	101551
#	121874
#	136285
#	163500
#	178342
#
# Disc length: 2609 seconds
#
# Revision: 0
# Processed by: cddbd v1.5.2PL0 Copyright (c) Steve Scherf et al.
# Submitted via: CDex 1.51
#
DISCID=a70a2f0c
DTITLE=Amy Black - The Muscle Shoals Sessions
DYEAR=2015
DGENRE=Rhythmic Soul
TTITLE0=Bring it On Home
TTITLE1=Uptight, Good Man 
TTITLE2=Get to Me
TTITLE3=Woman on Fire 
TTITLE4=You Gotta Move 
TTITLE5=Please Don't Give Up on Me
TTITLE6=Watch Dog
TTITLE7=Starting All Over Again 
TTITLE8=Tighten Up 
TTITLE9=Gotta Serve Somebody
TTITLE10=You Left the Water Running
TTITLE11=Amy Black - You Better Move On
EXTD=YEAR: 2015
EXTT0=
EXTT1=
EXTT2=
EXTT3=
EXTT4=
EXTT5=
EXTT6=
EXTT7=
EXTT8=
EXTT9=
EXTT10=
EXTT11=
PLAYORDER=
